<svg width="100" height="100" viewBox="0 0 100 100" fill="none" xmlns="http://www.w3.org/2000/svg">
<rect width="100" height="100" rx="50" fill="#EEF4FF"/>
<path opacity="0.25" d="M50 55.1217C49.5893 55.1217 49.188 55.0144 48.8333 54.8114L27.8333 42.6827C27.4786 42.4779 27.1841 42.1833 26.9793 41.8286C26.7746 41.4739 26.6667 41.0716 26.6667 40.662C26.6667 40.2525 26.7746 39.8501 26.9793 39.4954C27.1841 39.1407 27.4786 38.8462 27.8333 38.6414L48.8333 26.522C49.5566 26.109 50.4433 26.109 51.1666 26.522L72.1666 38.6414C72.5213 38.8462 72.8159 39.1407 73.0206 39.4954C73.2254 39.8501 73.3332 40.2525 73.3332 40.662C73.3332 41.0716 73.2254 41.4739 73.0206 41.8286C72.8159 42.1833 72.5213 42.4779 72.1666 42.6827L51.1666 54.8114C50.8116 55.0152 50.4093 55.1222 50 55.1217Z" fill="#2D76F9"/>
<path opacity="0.5" d="M72.1666 47.9746L67.584 45.3286L51.1666 54.8113C50.4433 55.2266 49.5566 55.2266 48.8333 54.8113L32.416 45.3286L27.8333 47.9746C27.4786 48.1794 27.1841 48.474 26.9793 48.8287C26.7746 49.1834 26.6667 49.5857 26.6667 49.9953C26.6667 50.4048 26.7746 50.8072 26.9793 51.1619C27.1841 51.5166 27.4786 51.8111 27.8333 52.0159L48.8333 64.1446C49.5566 64.5599 50.4433 64.5599 51.1666 64.1446L72.1666 52.0159C72.5213 51.8111 72.8159 51.5166 73.0206 51.1619C73.2254 50.8072 73.3332 50.4048 73.3332 49.9953C73.3332 49.5857 73.2254 49.1834 73.0206 48.8287C72.8159 48.474 72.5213 48.1794 72.1666 47.9746Z" fill="#2D76F9"/>
<path d="M72.1666 57.308L67.584 54.662L51.1666 64.1447C50.4433 64.56 49.5566 64.56 48.8333 64.1447L32.416 54.662L27.8333 57.308C27.4786 57.5128 27.1841 57.8073 26.9793 58.162C26.7746 58.5167 26.6667 58.9191 26.6667 59.3287C26.6667 59.7382 26.7746 60.1406 26.9793 60.4953C27.1841 60.85 27.4786 61.1445 27.8333 61.3493L48.8333 73.478C49.5566 73.8933 50.4433 73.8933 51.1666 73.478L72.1666 61.3493C72.5213 61.1445 72.8159 60.85 73.0206 60.4953C73.2254 60.1406 73.3332 59.7382 73.3332 59.3287C73.3332 58.9191 73.2254 58.5167 73.0206 58.162C72.8159 57.8073 72.5213 57.5128 72.1666 57.308Z" fill="#2D76F9"/>
</svg>
